<svg width="400" height="240" xmlns="http://www.w3.org/2000/svg">
  <defs>
    <linearGradient id="audioGrad1" x1="0%" y1="0%" x2="100%" y2="100%">
      <stop offset="0%" style="stop-color:#fa709a;stop-opacity:1" />
      <stop offset="100%" style="stop-color:#fee140;stop-opacity:1" />
    </linearGradient>
  </defs>
  <rect width="400" height="240" fill="url(#audioGrad1)"/>
  <!-- 오디오 웨이브 -->
  <rect x="80" y="80" width="8" height="80" rx="4" fill="white" opacity="0.8"/>
  <rect x="100" y="60" width="8" height="120" rx="4" fill="white" opacity="0.8"/>
  <rect x="120" y="70" width="8" height="100" rx="4" fill="white" opacity="0.8"/>
  <rect x="140" y="50" width="8" height="140" rx="4" fill="white" opacity="0.8"/>
  <rect x="160" y="75" width="8" height="90" rx="4" fill="white" opacity="0.8"/>
  <rect x="180" y="65" width="8" height="110" rx="4" fill="white" opacity="0.8"/>
  <rect x="200" y="55" width="8" height="130" rx="4" fill="white" opacity="0.8"/>
  <rect x="220" y="70" width="8" height="100" rx="4" fill="white" opacity="0.8"/>
  <rect x="240" y="80" width="8" height="80" rx="4" fill="white" opacity="0.8"/>
  <!-- 헤드폰 아이콘 -->
  <circle cx="100" cy="50" r="20" fill="white" opacity="0.9"/>
  <path d="M 85 50 Q 85 40 95 40 L 105 40 Q 115 40 115 50" stroke="white" stroke-width="3" fill="none" opacity="0.9"/>
  <!-- 재생 버튼 -->
  <circle cx="300" cy="120" r="30" fill="white" opacity="0.9"/>
  <polygon points="290,110 290,130 310,120" fill="#fa709a"/>
  <!-- 제목 영역 -->
  <rect x="20" y="180" width="360" height="50" fill="black" opacity="0.6" rx="4"/>
  <text x="200" y="200" font-family="Arial, sans-serif" font-size="16" font-weight="bold" fill="white" text-anchor="middle">오디오북</text>
  <text x="200" y="218" font-family="Arial, sans-serif" font-size="12" fill="#fee140" text-anchor="middle">롱폼 오디오</text>
  <text x="200" y="232" font-family="Arial, sans-serif" font-size="10" fill="#ffd93d" text-anchor="middle">🎧 에피소드 시리즈</text>
</svg>

